<svg width="68" height="28" viewBox="0 0 68 28" fill="none" xmlns="http://www.w3.org/2000/svg">
<path fill-rule="evenodd" clip-rule="evenodd" d="M32.8284 16.1228H24.768C24.1254 17.78 23.5927 19.1139 23.5927 19.1139H20.6036L28.7982 0L37.0456 19.1139H34.0565C34.0565 19.1139 33.5218 17.778 32.8284 16.1228ZM27.3565 9.60982C27.143 10.1954 26.7953 11.1308 26.3683 12.1719C26.1812 12.6518 25.7278 13.6929 25.7278 13.6929C25.7278 13.6929 26.1304 13.64 28.8511 13.64C31.5717 13.64 31.893 13.6929 31.893 13.6929C31.893 13.6929 31.4131 12.6518 31.2261 12.1719C30.9956 11.5274 30.7652 10.9529 30.5754 10.4798L30.5754 10.4797L30.5754 10.4797C30.4353 10.1303 30.3173 9.83611 30.2378 9.60982C29.3309 7.34055 28.8511 5.81957 28.8511 5.81957C28.8511 5.81957 28.2634 7.36699 27.3565 9.60982ZM15.5796 13.9087L15.5811 13.9065L15.5791 13.9085L15.5796 13.9087ZM9.92219 16.9505C12.3775 16.9505 14.3513 15.6969 15.5796 13.9087L18.009 14.9496C16.301 17.6459 13.3119 19.4333 9.92219 19.4333C4.69027 19.4333 0.525879 15.1103 0.525879 9.77058C0.525879 4.43089 4.69027 0.134325 9.92219 0.134325C13.1248 0.134325 15.9553 1.68174 17.7162 4.16451L15.6076 5.63262C14.2716 3.76393 12.4578 2.58863 9.92219 2.58863C6.23768 2.58863 3.16726 5.90103 3.16726 9.77058C3.16726 13.6401 6.23768 16.9505 9.92219 16.9505ZM47.2899 17.0317C48.0361 15.8035 48.1175 14.309 48.1175 12.4139V0.453447H45.3419V12.0377C45.3419 15.1346 45.2077 16.7633 42.8327 16.7633C42.4321 16.7633 42.1129 16.682 41.7916 16.5762L40.0551 18.6584C40.7769 19.059 41.6838 19.2989 42.7778 19.2989C44.7807 19.2989 46.3281 18.4714 47.2899 17.0297V17.0317ZM51.1859 19.1139L59.3804 0L67.6279 19.1139H64.6388C64.6388 19.1139 64.104 17.778 63.4106 16.1228H55.3502C54.7097 17.78 54.1749 19.1139 54.1749 19.1139H51.1859ZM56.31 13.6929C56.31 13.6929 56.6842 13.64 59.4333 13.64H59.4353C62.156 13.64 62.4773 13.6929 62.4773 13.6929C62.4773 13.6929 61.9974 12.6518 61.8103 12.1719C61.5799 11.5275 61.3495 10.953 61.1598 10.4799L61.1597 10.4797L61.1596 10.4795C61.0195 10.1301 60.9016 9.83606 60.8221 9.60982C59.9132 7.34055 59.4333 5.81957 59.4333 5.81957C59.4333 5.81957 58.8456 7.36699 57.9388 9.60982C57.7252 10.1954 57.3775 11.1308 56.9505 12.1719C56.7635 12.6518 56.31 13.6929 56.31 13.6929ZM18.2449 24.5654C18.1147 24.5654 17.9948 24.6061 17.8931 24.6712C17.8646 24.6895 17.8362 24.7139 17.8138 24.7362V24.0469H17.5576V25.8038H17.8138V25.6533C17.822 25.6607 17.8302 25.6687 17.8387 25.677L17.8387 25.6771C17.8512 25.6893 17.8643 25.7022 17.8789 25.7143C17.9846 25.7875 18.1066 25.8261 18.2449 25.8261C18.5967 25.8261 18.8773 25.5455 18.8773 25.1958C18.8773 24.846 18.5967 24.5654 18.2449 24.5654ZM18.2469 25.5964C18.0232 25.5964 17.8118 25.4174 17.8118 25.1958C17.8118 24.9741 18.0232 24.7891 18.2469 24.7891C18.4706 24.7891 18.6414 24.9701 18.6414 25.1958C18.6414 25.4215 18.4685 25.5964 18.2469 25.5964ZM19.6764 25.4866L19.7394 25.3422L20.0973 24.5532H20.3515L19.6337 26.1454H19.3653L19.5035 25.8505L19.5544 25.7346L19.5056 25.6269L19.0684 24.5532H19.3124L19.6235 25.3402L19.6764 25.4866ZM45.7364 26.8957L45.7079 26.9628H46.0434L47.3244 23.8741L48.5892 26.9343L48.6014 26.9628H48.939L47.3244 23.0607L45.7364 26.8957ZM38.0013 25.0331C37.9058 25.1145 37.7919 25.1755 37.6658 25.2161V25.2182C37.5621 25.2527 37.4503 25.271 37.3303 25.2751L38.4832 26.9669H38.1193L36.9684 25.2751H36.9257V26.9669H36.6125V23.3068H37.0965C37.2388 23.3068 37.3832 23.3129 37.5215 23.3291C37.6699 23.3474 37.8021 23.4023 37.9281 23.4938C38.0644 23.5935 38.1599 23.7114 38.2169 23.8517C38.2738 23.99 38.3023 24.1364 38.3023 24.297C38.3023 24.4577 38.2758 24.602 38.223 24.724C38.1721 24.8481 38.0989 24.9497 38.0013 25.0331ZM37.1676 24.9721C37.2713 24.9721 37.375 24.964 37.4848 24.9477L37.4828 24.9457C37.5784 24.9335 37.6699 24.8887 37.7533 24.8155C37.8346 24.7484 37.8915 24.6712 37.9281 24.5797C37.9668 24.4861 37.9851 24.3865 37.9851 24.2848C37.9851 24.1588 37.9566 24.0368 37.8997 23.9249C37.8448 23.8151 37.7573 23.7338 37.6394 23.6809C37.552 23.6402 37.4543 23.6158 37.3466 23.6118C37.249 23.6077 37.1473 23.6057 37.0273 23.6057H36.9277V24.9721H37.1676ZM42.1983 23.809C42.0315 23.6402 41.8302 23.504 41.6025 23.4044C41.3747 23.3068 41.1328 23.258 40.8806 23.258C40.6285 23.258 40.3885 23.3068 40.1567 23.4064C39.929 23.506 39.7297 23.6423 39.5609 23.811C39.3922 23.9818 39.2559 24.1832 39.1583 24.4089C39.0587 24.6346 39.0099 24.8786 39.0099 25.1348C39.0099 25.391 39.0607 25.637 39.1604 25.8627C39.26 26.0864 39.3962 26.2877 39.565 26.4585C39.7338 26.6293 39.9331 26.7656 40.1567 26.8632C40.3865 26.9628 40.6244 27.0116 40.8806 27.0116C41.1368 27.0116 41.3747 26.9628 41.6025 26.8632C41.8282 26.7656 42.0295 26.6293 42.1983 26.4585C42.367 26.2877 42.5033 26.0864 42.6029 25.8627C42.7025 25.637 42.7534 25.391 42.7534 25.1348C42.7534 24.8786 42.7025 24.6366 42.6029 24.4089C42.5033 24.1832 42.367 23.9818 42.1983 23.811V23.809ZM42.4402 25.1328C42.4402 25.3442 42.3975 25.5476 42.3142 25.7387C42.2308 25.9298 42.1169 26.0986 41.9766 26.241C41.8383 26.3833 41.6716 26.4972 41.4825 26.5826C41.1084 26.7493 40.6488 26.7493 40.2787 26.5826C40.0917 26.4992 39.9249 26.3853 39.7826 26.243C39.6382 26.0986 39.5243 25.9298 39.445 25.7428C39.3637 25.5537 39.323 25.3483 39.323 25.1348C39.323 24.9213 39.3637 24.7159 39.445 24.5268C39.5264 24.3377 39.6382 24.171 39.7805 24.0266C39.9229 23.8822 40.0896 23.7683 40.2767 23.685C40.4638 23.5996 40.6651 23.5569 40.8786 23.5569C41.0921 23.5569 41.2914 23.5996 41.4784 23.6829C41.6696 23.7683 41.8363 23.8842 41.9746 24.0246C42.1149 24.1649 42.2267 24.3336 42.3121 24.5248C42.3955 24.7139 42.4382 24.9192 42.4382 25.1328H42.4402ZM43.3471 23.3291L44.3435 25.0677L45.3561 23.3047H45.7059L44.5021 25.4052V26.9628H44.1869V25.4052L42.9831 23.3047H43.3329L43.3471 23.3291ZM49.8967 23.3047H49.5835V26.9628H50.7934V26.6619H49.8967V23.3047ZM35.0285 23.3047H35.4108L34.1379 25.0636L35.5145 26.9628H35.1302L35.1159 26.9445L33.9447 25.328L32.7592 26.9628H32.377H32.3749H32.011L30.8235 25.4317L29.6339 26.9628H29.2659L30.5042 25.0616L29.3716 23.3047H29.7376L29.7519 23.323L30.8235 24.6956L31.9093 23.3047H32.2753L31.1427 25.0616L32.379 26.9587L33.7536 25.0636L32.4766 23.3047H32.8629L32.8772 23.3251L33.9447 24.7993L35.0285 23.3047ZM25.9901 26.9628H26.3256L27.6066 23.8741L28.8714 26.9343L28.8856 26.9628H29.2211L27.6066 23.0607L25.9901 26.9628ZM22.5455 22.9916L23.5785 26.2471L24.6114 22.9916L25.864 26.9628H25.5366L25.5265 26.9303L24.6094 24.0225L23.5785 27.2759L22.5475 24.0225L21.6203 26.9628H21.295L22.5455 22.9916Z" fill="white"/>
</svg>
