<svg width="138" height="20" viewBox="0 0 138 20" fill="none" xmlns="http://www.w3.org/2000/svg">
<g clip-path="url(#clip0_5422_8349)">
<path fill-rule="evenodd" clip-rule="evenodd" d="M18.8748 9.90863C18.8748 3.86204 13.3465 0.289307 8.21147 0.289307H6.02389C4.38203 0.289307 1.58704 0.649492 0.0371094 1.13801V15.5616C0.0371094 18.6501 2.89377 19.859 6.66155 19.859H8.72695C14.7428 19.859 18.8748 15.3125 18.8748 9.90863ZM13.1021 10.2947C13.1021 13.3304 11.3102 15.9218 7.96712 15.9218H7.02576C6.26592 15.9218 5.81095 15.3815 5.81095 14.7636V4.32899C6.11465 4.27723 6.50911 4.22654 6.72205 4.22654H7.93803C10.7947 4.22654 13.1033 6.77049 13.1033 10.2958L13.1021 10.2947Z" fill="white"/>
<path d="M24.8592 4.44085C26.394 4.44085 27.6205 3.44872 27.6205 2.21935C27.6205 0.989971 26.394 0 24.8592 0C23.3244 0 22.0701 0.991049 22.0701 2.22042C22.0701 3.4498 23.3256 4.44193 24.8592 4.44193V4.44085Z" fill="white"/>
<path d="M30.2083 16.0888C28.5979 16.0888 27.8986 15.7027 27.8986 14.4431V9.24632C27.8986 6.67326 26.835 5.87524 23.5536 5.87524H22.1259V15.1635C22.1259 18.5065 24.5264 19.7941 27.5949 19.7941C29.3868 19.7941 30.9076 19.228 30.9076 17.5306V16.0888H30.2083Z" fill="white"/>
<path d="M56.5711 4.44085C58.1071 4.44085 59.3335 3.44872 59.3335 2.21935C59.3335 0.989971 58.1071 0 56.5711 0C55.0352 0 53.7831 0.991049 53.7831 2.22042C53.7831 3.4498 55.0375 4.44193 56.5711 4.44193V4.44085Z" fill="white"/>
<path d="M61.9216 16.0888C60.3111 16.0888 59.6118 15.7027 59.6118 14.4431V9.24632C59.6118 6.67326 58.5482 5.87524 55.2657 5.87524H53.838V15.1635C53.838 18.5065 56.2385 19.7941 59.3081 19.7941C61.1 19.7941 62.6197 19.228 62.6197 17.5306V16.0888H61.9216Z" fill="white"/>
<path fill-rule="evenodd" clip-rule="evenodd" d="M50.262 12.1407V3.93299C50.262 1.5411 49.0158 0.51123 46.7072 0.51123H44.6406V6.89212C44.0332 5.78568 42.453 4.98875 40.326 4.98875C35.8903 4.98875 32.4274 7.9468 32.4274 12.7069C32.4274 16.5406 36.2242 19.9634 41.1475 19.9634C47.801 19.9634 50.2632 17.2609 50.2632 12.1418L50.262 12.1407ZM44.5196 12.8093C44.5196 15.0222 43.5771 16.2052 41.7851 16.2052C39.6883 16.2052 38.1698 15.0729 38.1698 12.2949C38.1698 10.1338 39.4765 8.76962 41.0265 8.76962C43.093 8.76962 44.5208 9.64528 44.5208 12.8093H44.5196Z" fill="white"/>
<path fill-rule="evenodd" clip-rule="evenodd" d="M90.7638 19.588V11.8958C90.7638 7.46894 87.8769 5.02637 83.0165 5.02637C80.6148 5.02637 78.5797 6.46711 77.7907 7.54767C77.2427 6.38946 75.268 5.02637 72.6546 5.02637C67.338 5.02637 64.5419 7.65011 64.5419 11.7664V16.7324C64.5419 18.5333 65.7264 19.588 68.3096 19.588H70.3157V11.4579C70.3157 9.7077 70.9534 9.01321 72.5638 9.01321C74.0823 9.01321 74.8422 9.7077 74.8422 11.3803V16.7324C74.8422 18.9453 76.0884 19.588 78.4284 19.588H80.4333V11.4321C80.4333 10.0172 80.9802 9.01321 82.5906 9.01321C84.2011 9.01321 84.9912 9.68182 84.9912 11.5086V16.7324C84.9912 18.4826 85.6893 19.588 88.7589 19.588H90.7638Z" fill="white"/>
<path fill-rule="evenodd" clip-rule="evenodd" d="M94.0753 5.97732V14.7512C94.0753 18.6356 97.1438 19.7938 100 19.7938C103.008 19.7938 104.284 18.7132 104.284 17.5302V15.6258H104.132C103.525 15.8317 102.887 15.9353 101.52 15.9353C100.395 15.9353 99.6967 15.3691 99.6967 14.418V9.29771H101.762C103.069 9.29771 104.589 8.37245 104.589 7.16248V5.43812H99.6967V1.99048H99.0882C97.8733 1.99048 96.8401 2.45419 96.0802 2.94271C94.9562 3.66308 94.0753 4.69295 94.0753 5.9784V5.97732Z" fill="white"/>
<path fill-rule="evenodd" clip-rule="evenodd" d="M123.427 13.3609V8.31727C123.427 6.25969 122.15 5.43579 119.841 5.43579H117.593V13.1819C117.593 15.4196 116.5 16.0882 115.131 16.0882C113.552 16.0882 112.397 15.4455 112.397 13.3609V8.31727C112.397 6.15616 111.304 5.43579 108.781 5.43579H106.533V13.2315C106.533 17.7597 109.479 19.9985 114.888 19.9985C120.296 19.9985 123.425 17.8881 123.425 13.3599L123.427 13.3609Z" fill="white"/>
<path fill-rule="evenodd" clip-rule="evenodd" d="M137.037 9.09062V7.28969C137.037 5.97728 135.7 4.97437 132.813 4.97437C129.017 4.97437 126.737 7.239 126.737 10.0946V16.2436C126.737 18.6107 128.257 19.5878 130.748 19.5878H132.328V11.1234C132.328 9.39904 133.421 8.807 134.819 8.807C135.579 8.807 136.126 8.85876 136.856 9.09062H137.037Z" fill="white"/>
</g>
<defs>
<clipPath id="clip0_5422_8349">
<rect width="137" height="20" fill="white" transform="translate(0.0371094)"/>
</clipPath>
</defs>
</svg>
