<svg width="143" height="26" viewBox="0 0 143 26" fill="none" xmlns="http://www.w3.org/2000/svg">
<path d="M38.6367 0.641426C39.0528 0.26288 39.6042 0.0558959 40.1747 0.0641715L40.245 3.08092e-05C40.8378 -0.00301695 41.4081 0.220164 41.8326 0.621375C42.0546 0.821566 42.2313 1.06424 42.3516 1.33403C42.4718 1.60382 42.5331 1.89487 42.5314 2.18878V15.8184C42.5314 19.5946 41.2497 21.5909 39.2775 23.2345L39.1659 23.3467C38.8791 23.5995 38.5722 23.8301 38.2481 24.0362L38.153 24.1084C37.5987 24.4719 37.0037 24.7731 36.3793 25.0063C36.2098 25.0745 36.0402 25.1426 35.8625 25.2067C35.4912 25.3272 35.1129 25.4263 34.7296 25.5034L34.6221 25.5275C34.1206 25.6244 33.6117 25.6807 33.1006 25.6958H32.22L31.8768 25.6718H31.7363L31.422 25.6317L31.2277 25.6036C31.1965 25.6003 31.1659 25.5934 31.1356 25.5865C31.0935 25.577 31.0518 25.5675 31.0086 25.5675L30.7026 25.5114H30.6158C30.1701 25.4065 29.7323 25.2726 29.3052 25.1105H29.2514L28.9786 25.0023H28.9372C28.1951 24.6968 27.4941 24.3051 26.8493 23.8358C26.4034 23.5042 25.9884 23.1353 25.6089 22.7334L25.456 22.5731C23.9504 20.9703 23.0725 18.9062 22.9753 16.7404V15.4736C22.9736 15.4563 22.9736 15.4388 22.9753 15.4215C23.027 14.8791 23.1294 14.3424 23.2812 13.818C23.2867 13.8022 23.2934 13.7868 23.3001 13.7718C23.3137 13.7409 23.3267 13.7113 23.3267 13.6817L23.3557 13.5855C23.3632 13.5655 23.3673 13.5521 23.3722 13.5359C23.3782 13.5165 23.3853 13.493 23.4011 13.4492C23.4107 13.4227 23.4198 13.3967 23.4288 13.3711C23.4469 13.3193 23.4645 13.269 23.4838 13.2207L23.5096 13.153C23.5732 12.9855 23.6431 12.8012 23.7195 12.6355C23.7269 12.6174 23.7344 12.6035 23.7425 12.5881C23.7526 12.5693 23.7637 12.5483 23.7774 12.5152C23.794 12.475 23.8124 12.4383 23.8315 12.4004C23.8409 12.3818 23.8505 12.3627 23.8601 12.3428L24.0006 12.0622L24.0378 11.9981C24.2991 11.5043 24.6063 11.0346 24.9557 10.595C25.2211 10.2609 25.5099 9.94486 25.8198 9.64898L26.0307 9.44855L26.0761 9.40846L26.3573 9.16793L26.4648 9.08375L26.7294 8.87531L26.8286 8.80314C27.1201 8.58897 27.4238 8.3909 27.7382 8.20986C28.5253 7.75522 29.3762 7.4136 30.2644 7.19566C30.5612 7.11562 30.8621 7.05006 31.1657 6.99922C31.1881 6.99505 31.2107 6.99052 31.2334 6.98597C31.3195 6.9687 31.4073 6.95112 31.4923 6.95112C32.3153 6.84128 33.15 6.84128 33.973 6.95112C34.293 6.9833 34.6049 7.06874 34.895 7.20367C35.33 7.40613 35.6803 7.74714 35.8873 8.16977C36.1444 8.69248 36.1774 9.29268 35.979 9.83892C35.7806 10.3852 35.367 10.8329 34.8288 11.0841C34.5617 11.2097 34.2698 11.2781 33.973 11.2845C33.8078 11.2945 33.6421 11.2945 33.4769 11.2845C33.2586 11.2612 33.039 11.2518 32.8195 11.2565L32.0215 11.3607C31.7416 11.3949 31.4651 11.4512 31.1946 11.5291L31.0169 11.5812L30.7812 11.6613L30.6613 11.7055C30.3733 11.8248 30.0966 11.9683 29.8344 12.1344L29.7186 12.2065C29.6153 12.2747 29.5202 12.3428 29.4251 12.419L29.3341 12.4871C29.2184 12.5793 29.1067 12.6756 28.9992 12.7798C28.5257 13.2417 28.1456 13.7856 27.8788 14.3833C27.8137 14.527 27.7571 14.6742 27.7093 14.8242V14.8643C27.5572 15.3503 27.4805 15.8556 27.4819 16.3636C27.4771 17.0339 27.618 17.6977 27.8953 18.3118C27.9532 18.4281 28.0194 18.5603 28.102 18.7127L28.1434 18.7888L28.1971 18.869L28.2426 18.9412C28.3864 19.1641 28.5496 19.3746 28.7305 19.5705C29.1808 20.064 29.722 20.4718 30.3264 20.7731C31.3976 21.2948 32.6233 21.4366 33.7911 21.174L34.1549 21.0778C35.1334 20.7893 36.0106 20.2441 36.6894 19.5024C37.0025 19.1572 37.2667 18.773 37.4749 18.3599C37.5796 18.129 37.6694 17.8921 37.7437 17.6504V17.6704C37.8698 17.2387 37.9338 16.7922 37.9338 16.3435V1.95227C38.0079 1.45065 38.2558 0.988386 38.6367 0.641426Z" fill="white"/>
<path d="M83.409 8.6067C84.9335 7.42833 86.8345 6.80306 88.7838 6.83885C93.2697 6.83885 96.5318 9.63694 96.5318 13.4973V23.1182C96.5318 23.952 96.5029 24.3128 96.2217 24.8179C95.9964 25.1265 95.698 25.3781 95.3516 25.5518C95.0052 25.7255 94.621 25.8162 94.231 25.8162C93.841 25.8162 93.4568 25.7255 93.1104 25.5518C92.764 25.3781 92.4656 25.1265 92.2402 24.8179C91.955 24.3128 91.926 23.944 91.926 23.1102V14.0786C91.926 12.1865 90.756 11.06 88.7921 11.06C87.0721 11.06 85.9517 11.9259 85.7119 13.4372V23.1262C85.7119 23.96 85.683 24.3208 85.4018 24.8259C85.1884 25.1467 84.8922 25.4079 84.5427 25.5837C84.1932 25.7594 83.8024 25.8437 83.409 25.8281H83.3883C82.9963 25.8442 82.6067 25.761 82.258 25.5867C81.9093 25.4124 81.6134 25.1529 81.3997 24.8339C81.1102 24.3288 81.0854 23.96 81.0854 23.1262V13.5053C81.0832 13.484 81.0832 13.4625 81.0854 13.4412C80.8415 11.9259 79.721 11.06 78.0011 11.06C76.0372 11.06 74.8672 12.1865 74.8672 14.0786V23.1262C74.8672 23.96 74.8424 24.3208 74.5612 24.8259C74.3354 25.1345 74.0366 25.3862 73.6899 25.5598C73.3432 25.7335 72.9586 25.8241 72.5684 25.8241C72.1781 25.8241 71.7936 25.7335 71.4469 25.5598C71.1002 25.3862 70.8014 25.1345 70.5756 24.8259C70.2903 24.3208 70.2655 23.952 70.2655 23.1182V13.4973C70.2655 9.63694 73.5193 6.83084 78.0011 6.83084C79.9628 6.7891 81.8772 7.41774 83.409 8.6067Z" fill="white"/>
<path fill-rule="evenodd" clip-rule="evenodd" d="M4.43833 8.50934C6.0668 7.47441 7.97574 6.93205 9.92275 6.95112C12.5136 6.96808 14.9919 7.98008 16.8146 9.76539C18.6373 11.5507 19.6559 13.9637 19.6471 16.4758C19.647 18.3637 19.0682 20.209 17.9843 21.7773C16.9005 23.3456 15.3604 24.5663 13.5596 25.2843C11.7587 26.0023 9.7785 26.1852 7.87026 25.8098C5.96203 25.4344 4.21189 24.5177 2.84208 23.176C1.47227 21.8343 0.54458 20.1282 0.176818 18.2743C-0.190945 16.4204 0.0178104 14.5023 0.776568 12.7637C1.53533 11.0251 2.80986 9.54426 4.43833 8.50934ZM7.0508 20.6477C7.90365 21.1893 8.90329 21.473 9.92275 21.4626C11.2792 21.4542 12.5768 20.9244 13.5309 19.9895C14.4851 19.0546 15.0178 17.791 15.0123 16.4758C15.0122 15.4873 14.7092 14.5211 14.1416 13.6999C13.5741 12.8788 12.7676 12.2397 11.8246 11.8638C10.8817 11.4879 9.84481 11.3923 8.84567 11.589C7.84653 11.7856 6.93021 12.2658 6.2131 12.9684C5.49598 13.6711 5.01042 14.5645 4.81808 15.5353C4.62573 16.506 4.73529 17.5103 5.13282 18.4206C5.53036 19.3308 6.19795 20.106 7.0508 20.6477Z" fill="white"/>
<path d="M136.673 16.2556L142.296 10.8038C142.747 10.3679 143 9.77644 143 9.15961C143 8.54277 142.748 7.95105 142.298 7.51462C142.076 7.29852 141.812 7.12705 141.521 7.00999C141.23 6.89294 140.918 6.8326 140.603 6.83241C139.967 6.83203 139.356 7.07671 138.906 7.51261L133.283 12.9685L127.648 7.51261C127.198 7.07671 126.588 6.83203 125.951 6.83241C125.315 6.83279 124.705 7.07818 124.256 7.51462C123.806 7.95105 123.554 8.54277 123.554 9.15961C123.554 9.77644 123.808 10.3679 124.258 10.8038L129.881 16.2556L124.258 21.7114C124.035 21.9271 123.858 22.1832 123.737 22.4653C123.616 22.7473 123.554 23.0496 123.554 23.355C123.554 23.6604 123.616 23.9627 123.737 24.2448C123.858 24.5268 124.035 24.783 124.258 24.9986C124.48 25.2148 124.744 25.3864 125.035 25.5034C125.326 25.6205 125.638 25.6808 125.953 25.6808C126.268 25.6808 126.58 25.6205 126.87 25.5034C127.161 25.3864 127.426 25.2148 127.648 24.9986L133.275 19.5427L138.898 24.9986C139.348 25.4333 139.958 25.6774 140.593 25.6774C141.228 25.6774 141.838 25.4333 142.288 24.9986C142.511 24.783 142.688 24.5268 142.809 24.2448C142.93 23.9627 142.992 23.6604 142.992 23.355C142.992 23.0496 142.93 22.7473 142.809 22.4653C142.688 22.1832 142.511 21.9271 142.288 21.7114L136.673 16.2556Z" fill="white"/>
<path d="M62.6332 9.34856C62.6185 9.33425 62.6044 9.31932 62.5901 9.30425C62.5685 9.28132 62.5466 9.25809 62.5216 9.23631C62.2352 8.98473 61.9297 8.75426 61.6079 8.54682L61.5087 8.47466C60.9552 8.11097 60.36 7.81097 59.735 7.58072C59.5991 7.52145 59.4577 7.46758 59.313 7.41246L59.2181 7.37627C58.8474 7.25521 58.469 7.15747 58.0853 7.08364L57.9819 7.05558C57.4788 6.96059 56.9686 6.90429 56.4563 6.88721H55.5881L55.2408 6.91527H55.1002L54.786 6.95135L54.5917 6.97941L54.3725 7.01549C54.3376 7.02255 54.3021 7.02911 54.2665 7.0357C54.201 7.04782 54.135 7.06004 54.0707 7.07562H53.9798C53.533 7.17678 53.0949 7.31079 52.6691 7.47649L52.6154 7.49654L52.3466 7.60076H52.3053C51.5619 7.90627 50.8595 8.29796 50.2132 8.76729C49.7673 9.09888 49.3523 9.46776 48.9729 9.86969L48.8199 10.03C48.2079 10.6842 47.6956 11.4199 47.2984 12.2148C46.7231 13.3529 46.4019 14.596 46.3558 15.8627V16.8007C46.3578 16.8154 46.3578 16.8302 46.3558 16.8448V17.1295C46.3578 17.1468 46.3578 17.1643 46.3558 17.1816C46.4089 17.7241 46.5126 18.2608 46.6659 18.785C46.6659 18.8163 46.6781 18.8458 46.69 18.8747C46.6935 18.8833 46.697 18.8917 46.7002 18.9002C46.7028 18.9072 46.7052 18.9143 46.7072 18.9213L46.7403 19.0175C46.753 19.0637 46.7681 19.1092 46.7858 19.1538C46.8025 19.2078 46.821 19.26 46.839 19.3103C46.8477 19.3347 46.8562 19.3588 46.8643 19.3823L46.8919 19.4554C46.9573 19.6289 47.0239 19.8055 47.1 19.9636L47.1579 20.0839C47.1716 20.1172 47.1879 20.1494 47.204 20.1809C47.2168 20.2063 47.2295 20.2313 47.2406 20.2562C47.2654 20.3124 47.3356 20.4447 47.3853 20.5369L47.4183 20.605C47.6801 21.0985 47.9873 21.5681 48.3362 22.008C48.6019 22.3432 48.892 22.6593 49.2044 22.9541C49.2747 23.0222 49.345 23.0904 49.4194 23.1545L49.4608 23.1946L49.746 23.4351L49.8494 23.5193C49.936 23.5913 50.0266 23.6592 50.1173 23.7271L50.1182 23.7278L50.2132 23.7999C50.5064 24.015 50.8114 24.2144 51.127 24.3972C51.9128 24.8506 52.7623 25.1908 53.649 25.4074C53.988 25.4956 54.2774 25.5598 54.5503 25.6039C54.617 25.6039 54.6822 25.6167 54.7477 25.6297C54.7919 25.6384 54.8361 25.6471 54.8811 25.652C55.6959 25.7602 56.5221 25.7602 57.337 25.652C57.657 25.6198 57.9689 25.5343 58.259 25.3994C58.694 25.197 59.0442 24.8559 59.2512 24.4333C59.5083 23.9106 59.5413 23.3104 59.3429 22.7641C59.1445 22.2179 58.731 21.7702 58.1928 21.519C57.9257 21.3934 57.6338 21.325 57.337 21.3186H56.8408C56.6226 21.3419 56.403 21.3513 56.1834 21.3466L55.3855 21.2464C55.1063 21.2082 54.83 21.152 54.5586 21.078L54.3849 21.0219L54.1451 20.9417L54.0294 20.8976C53.7407 20.7796 53.4639 20.636 53.2025 20.4687L53.0867 20.3965C52.9876 20.3284 52.8882 20.2602 52.7932 20.1841L52.7022 20.1159C52.5861 20.0248 52.4757 19.927 52.3714 19.8233C51.8969 19.3613 51.5156 18.8175 51.2469 18.2198C51.1818 18.0761 51.1252 17.9288 51.0773 17.7789V17.7388C50.9219 17.2534 50.8438 16.7478 50.8458 16.2395C50.8431 15.5694 50.9839 14.906 51.2593 14.2913C51.3172 14.163 51.3833 14.0267 51.466 13.8904L51.5115 13.8142C51.5264 13.7853 51.543 13.7572 51.5611 13.7301L51.6066 13.6579C51.7504 13.435 51.9136 13.2245 52.0944 13.0285C52.5454 12.5357 53.0865 12.128 53.6903 11.8259C54.761 11.3023 55.9874 11.1604 57.155 11.4251C57.2749 11.4531 57.399 11.4892 57.5189 11.5253C57.7858 11.6022 58.0457 11.7 58.2962 11.8179C58.9615 12.132 59.5581 12.5675 60.0533 13.1007C60.3687 13.4428 60.6331 13.826 60.8389 14.2392C60.9454 14.4693 61.0352 14.7064 61.1076 14.9487V14.9287C61.2304 15.3609 61.293 15.8072 61.2937 16.2556V23.6757C61.3677 24.1773 61.6156 24.6395 61.9965 24.9865C62.4141 25.3653 62.9669 25.5722 63.5387 25.5638C64.1299 25.5649 64.6982 25.3419 65.1222 24.9424C65.3449 24.7428 65.5222 24.5003 65.6425 24.2304C65.7628 23.9604 65.8236 23.6691 65.8209 23.375V16.7646C65.8209 12.9884 64.6054 10.9921 62.6332 9.34856Z" fill="white"/>
<path d="M117.159 9.23631L117.275 9.34856C119.247 10.9921 120.454 12.9884 120.454 16.7646V23.367C120.457 23.6611 120.396 23.9524 120.276 24.2223C120.155 24.4923 119.978 24.7348 119.755 24.9344C119.331 25.3339 118.763 25.5569 118.172 25.5558C117.6 25.5642 117.047 25.3573 116.63 24.9785C116.249 24.6315 116.001 24.1693 115.927 23.6676V16.2475C115.925 15.799 115.861 15.3527 115.736 14.9207V14.9407C115.666 14.6984 115.577 14.4613 115.472 14.2312C115.265 13.8179 114.999 13.4347 114.682 13.0927C114.188 12.5605 113.593 12.1251 112.929 11.8099C112.677 11.692 112.416 11.5941 112.148 11.5173C112.028 11.4812 111.908 11.4451 111.784 11.4171C111.276 11.3026 110.753 11.2647 110.233 11.3048C109.566 11.356 108.916 11.5331 108.319 11.8259C107.717 12.1281 107.177 12.5358 106.727 13.0285C106.544 13.2234 106.379 13.434 106.235 13.6579L106.19 13.7301C106.172 13.7572 106.155 13.7853 106.14 13.8142L106.099 13.8904C106.016 14.0267 105.946 14.163 105.888 14.2913C105.613 14.9059 105.472 15.5693 105.475 16.2395C105.471 16.7476 105.548 17.2532 105.702 17.7388V17.7789C105.752 17.9312 105.81 18.0755 105.872 18.2198C106.14 18.8175 106.522 19.3613 106.996 19.8233C107.104 19.9275 107.215 20.0237 107.327 20.1159L107.418 20.1841C107.513 20.2602 107.612 20.3282 107.711 20.3963L107.827 20.4687C108.089 20.6352 108.366 20.7787 108.654 20.8976L108.77 20.9417L109.01 21.0219L109.183 21.078C109.455 21.1516 109.731 21.2078 110.01 21.2464L110.808 21.3466C111.028 21.3514 111.247 21.342 111.466 21.3186H111.962C112.26 21.3251 112.553 21.3934 112.822 21.519C113.088 21.6417 113.327 21.8149 113.524 22.0283C113.72 22.2417 113.871 22.491 113.967 22.7617C114.069 23.0318 114.114 23.3192 114.098 23.6066C114.083 23.8939 114.007 24.1752 113.876 24.4333C113.673 24.8572 113.323 25.1989 112.888 25.3994C112.596 25.5344 112.283 25.6198 111.962 25.652C111.147 25.7602 110.321 25.7602 109.506 25.652C109.461 25.6471 109.417 25.6384 109.372 25.6297C109.307 25.6167 109.242 25.6039 109.175 25.6039C108.902 25.5598 108.617 25.4956 108.278 25.4074C107.39 25.1909 106.539 24.8506 105.752 24.3972C105.437 24.2134 105.132 24.0141 104.838 23.7999L104.743 23.7278C104.652 23.6598 104.561 23.5913 104.474 23.5193L104.371 23.4351L104.086 23.1946L104.044 23.1545C103.97 23.0904 103.899 23.0222 103.829 22.9541C103.518 22.6582 103.228 22.3422 102.961 22.008C102.614 21.5671 102.306 21.0976 102.043 20.605L102.006 20.5369C101.956 20.4447 101.911 20.3524 101.865 20.2562L101.778 20.0839L101.725 19.9636C101.638 19.7832 101.559 19.5788 101.489 19.3823C101.481 19.3586 101.471 19.3306 101.462 19.3021C101.442 19.2438 101.422 19.1834 101.411 19.1538C101.406 19.1412 101.4 19.1285 101.394 19.1157C101.38 19.0841 101.365 19.0518 101.365 19.0175L101.336 18.9213C101.318 18.8767 101.303 18.8312 101.291 18.785C101.137 18.2608 101.034 17.7241 100.981 17.1816V15.8627C101.078 13.6969 101.956 11.6328 103.461 10.03L103.61 9.86969C103.99 9.4687 104.405 9.0999 104.85 8.76729C105.497 8.29796 106.199 7.90627 106.942 7.60076H106.984L107.253 7.49654L107.31 7.47649C107.735 7.31079 108.172 7.17678 108.617 7.07562H108.708C108.772 7.06004 108.838 7.04782 108.904 7.0357C108.939 7.02911 108.975 7.02255 109.01 7.01549L109.233 6.97941L109.427 6.95135C109.461 6.94741 109.495 6.94218 109.529 6.93693C109.599 6.92615 109.669 6.91527 109.741 6.91527H109.878L110.225 6.88721H111.093C111.606 6.90429 112.116 6.96059 112.619 7.05558L112.727 7.08364C113.109 7.1575 113.486 7.25525 113.855 7.37627C113.891 7.39006 113.927 7.40369 113.963 7.41725C114.103 7.47071 114.241 7.52316 114.376 7.58072C115 7.81095 115.594 8.11096 116.146 8.47466L116.245 8.54682C116.567 8.75426 116.872 8.98473 117.159 9.23631Z" fill="white"/>
</svg>
