<svg width="95" height="27" viewBox="0 0 95 27" fill="none" xmlns="http://www.w3.org/2000/svg">
<path d="M9.01395 14.3788C9.51296 15.5851 10.631 16.3457 12.0663 16.3464C13.5416 16.3457 14.6621 15.5984 15.1554 14.3854C15.3747 13.8462 15.845 13.3977 16.4304 13.3977C17.1017 13.3977 17.6415 13.9724 17.4549 14.6129C16.7652 16.9791 14.6589 18.5634 12.064 18.5634C9.47573 18.5634 7.40305 16.9549 6.71359 14.6171C6.52427 13.9752 7.065 13.3977 7.7384 13.3977C8.32185 13.3977 8.79218 13.8427 9.01395 14.3788Z" fill="white"/>
<path fill-rule="evenodd" clip-rule="evenodd" d="M7.60769 23.8899L7.60875 23.8904L7.60982 23.8909C9.05507 24.5041 10.6029 24.8104 12.252 24.8104C13.8563 24.8104 15.3481 24.504 16.7261 23.89L16.7265 23.8898L16.7269 23.8896C18.1249 23.2543 19.3627 22.3805 20.4395 21.269L20.4399 21.2685L20.4403 21.2681C21.5171 20.134 22.3534 18.8409 22.9489 17.3894L22.9491 17.3888C23.4106 16.2466 23.6932 15.0502 23.7973 13.8002H24.9917V18.0102C24.9917 18.6435 25.0372 19.1902 25.1295 19.6488L25.1299 19.6507L25.1303 19.6526C25.238 20.1109 25.3929 20.5051 25.597 20.8325L25.5977 20.8337L25.5984 20.8348C25.8039 21.1488 26.0656 21.4011 26.3829 21.5902L26.384 21.5908L26.3851 21.5914C26.7152 21.7788 27.0976 21.91 27.5305 21.9867L27.5312 21.9869C27.9454 22.0578 28.3621 22.0877 28.7771 22.0998C29.5797 22.1231 30.2248 21.4603 30.2248 20.6706C30.2248 19.8672 29.5643 19.324 28.7963 19.2316C28.6905 19.2188 28.5877 19.2001 28.4885 19.1733C28.3596 19.1347 28.2518 19.0719 28.1628 18.9855C28.0874 18.8835 28.0278 18.7534 27.9866 18.592C27.9583 18.4066 27.9437 18.1757 27.9437 17.898V13.8002H29.052C29.8485 13.8002 30.4942 13.1588 30.4942 12.3676C30.4942 11.5764 29.8485 10.935 29.052 10.935H27.9437V8.55697C27.9437 7.74718 27.2829 7.09072 26.4677 7.09072C25.6525 7.09072 24.9917 7.74718 24.9917 8.55697V10.935H23.7265C23.5851 9.893 23.3145 8.90226 22.9143 7.96312C22.2962 6.48978 21.4485 5.1967 20.3714 4.08488C19.2939 2.97262 18.0328 2.10991 16.589 1.49711C15.1658 0.860919 13.6175 0.543457 11.9457 0.543457C10.3408 0.543457 8.83741 0.861372 7.43684 1.49789C6.03827 2.1335 4.80029 3.01886 3.7234 4.15315C2.66892 5.26528 1.83286 6.56974 1.21495 8.06523L1.21477 8.06566L1.21459 8.0661C0.618509 9.54155 0.320984 11.1294 0.320984 12.8286C0.320984 14.4838 0.630236 16.0387 1.24949 17.492L1.24976 17.4926C1.86832 18.9217 2.72763 20.1922 3.82723 21.3036L3.82767 21.304L3.82811 21.3044C4.92759 22.393 6.18766 23.255 7.60769 23.8899ZM9.24933 19.8418L9.25 19.8421L9.25067 19.8424C10.158 20.2357 11.1298 20.4321 12.1651 20.4321C13.1723 20.4321 14.1089 20.2356 14.974 19.8418L14.9742 19.8417L14.9745 19.8416C15.8522 19.4341 16.6293 18.8737 17.3053 18.1608L17.3056 18.1605L17.3059 18.1602C17.9818 17.4329 18.5069 16.6035 18.8808 15.6726L18.8809 15.6722C19.2551 14.7262 19.4419 13.7222 19.4419 12.661C19.4419 11.5709 19.2479 10.5593 18.8591 9.62694C18.471 8.682 17.9388 7.85267 17.2626 7.13959C16.5861 6.42623 15.7944 5.87292 14.8879 5.47989C13.9944 5.07186 13.0224 4.86826 11.9728 4.86826C10.9652 4.86826 10.0214 5.07215 9.14207 5.48039C8.26402 5.88805 7.48677 6.45592 6.81068 7.18341C6.14866 7.89669 5.6238 8.73328 5.23587 9.69243L5.23576 9.69271L5.23565 9.69299C4.86142 10.6393 4.67463 11.6577 4.67463 12.7474C4.67463 13.809 4.86878 14.8063 5.25756 15.7384L5.25773 15.7388C5.64607 16.6553 6.18556 17.4702 6.8759 18.183L6.87618 18.1833L6.87645 18.1835C7.56673 18.8817 8.35781 19.4346 9.24933 19.8418Z" fill="white"/>
<path d="M59.8813 16.7374C59.8813 17.5404 59.988 18.2639 60.2035 18.9064C60.9298 21.1218 62.89 22.1074 65.1419 22.1074C67.3939 22.1074 69.354 21.1218 70.0803 18.9064C70.2959 18.2639 70.4026 17.5404 70.4026 16.7374V12.4012C70.4026 11.5914 69.7418 10.935 68.9266 10.935C68.1114 10.935 67.4505 11.5914 67.4505 12.4012V16.7598C67.4505 17.4556 67.236 18.0765 66.8438 18.5217C66.4533 18.965 65.8797 19.2422 65.1419 19.2422C64.4042 19.2422 63.8306 18.965 63.4401 18.5217C63.0479 18.0765 62.8334 17.4556 62.8334 16.7598V12.4012C62.8334 11.5914 62.1725 10.935 61.3573 10.935C60.5421 10.935 59.8813 11.5914 59.8813 12.4012V16.7374Z" fill="white"/>
<path fill-rule="evenodd" clip-rule="evenodd" d="M34.1522 17.6596C34.3312 18.2151 34.6445 18.6541 35.067 18.9613C35.5275 19.2962 36.1254 19.4803 36.8376 19.4803C37.535 19.4803 38.1674 19.3136 38.6895 18.9924L38.6897 18.9923C39.2062 18.6754 39.8729 18.7771 40.297 19.1971C40.8894 19.7838 40.8016 20.7767 40.0913 21.2276L40.091 21.2278C39.163 21.8127 38.0565 22.1074 36.8582 22.1074C33.489 22.1074 30.9779 19.7621 30.9779 16.5241C30.9779 13.5083 33.3169 11.0948 36.3488 10.9428L36.3957 10.9408C39.6211 10.8032 41.9928 13.111 41.9928 16.2792C41.9928 17.0309 41.3563 17.6396 40.6073 17.6397H40.6071L34.1522 17.6596ZM36.6572 13.5433C36.002 13.5534 35.4483 13.7365 35.0176 14.0606C34.6242 14.3565 34.3276 14.7743 34.1505 15.2982H38.9545C38.8087 14.7393 38.5533 14.3156 38.1989 14.0254C37.815 13.711 37.3027 13.5435 36.6572 13.5433Z" fill="white"/>
<path d="M43.2021 7.77611V20.6411C43.2021 21.4509 43.863 22.1074 44.6782 22.1074C45.4928 22.1074 46.1542 21.4565 46.1542 20.6462V7.77031C46.1542 6.95985 45.4927 6.30985 44.6782 6.30985C43.863 6.30985 43.2021 6.96632 43.2021 7.77611Z" fill="white"/>
<path fill-rule="evenodd" clip-rule="evenodd" d="M57.3919 20.5384L57.3913 20.5391C56.9136 21.029 56.3585 21.4118 55.7269 21.6873C55.0939 21.9634 54.4223 22.1012 53.7134 22.1012C52.9606 22.1012 52.2805 21.9638 51.6753 21.6864L51.6736 21.6856L51.6719 21.6847C51.2991 21.4996 50.9604 21.271 50.6558 20.999V25.2775C50.6558 26.0811 50 26.7325 49.1911 26.7325C48.3821 26.7325 47.7263 26.0811 47.7263 25.2775V12.39C47.7263 11.5864 48.3821 10.935 49.1911 10.935C49.9083 10.935 50.5051 11.447 50.6312 12.1232C50.9535 11.8231 51.3156 11.5733 51.717 11.3739C52.308 11.0804 52.9744 10.935 53.7134 10.935C54.4231 10.935 55.0881 11.0807 55.7071 11.3726C56.3388 11.6635 56.8934 12.0692 57.3705 12.5888C57.8627 13.1084 58.2469 13.7118 58.5232 14.3978C58.8005 15.0712 58.9386 15.7971 58.9386 16.5742C58.9386 17.3661 58.8005 18.0996 58.523 18.7735C58.2467 19.4445 57.8699 20.033 57.3926 20.5378L57.3919 20.5384ZM54.7135 19.0059C55.1162 18.7627 55.4322 18.4345 55.6628 18.0193L55.6631 18.0187L55.6634 18.0181C55.9083 17.5888 56.0317 17.1084 56.0317 16.5742C56.0317 16.0244 55.908 15.5448 55.6643 15.1318L55.6635 15.1304L55.6628 15.1291C55.4323 14.7141 55.1167 14.3938 54.7149 14.1658L54.7135 14.165L54.7122 14.1641C54.3108 13.9221 53.8585 13.8002 53.3521 13.8002C52.8614 13.8002 52.4165 13.9217 52.0146 14.1641C51.6108 14.4077 51.2862 14.7369 51.0401 15.1536C50.8116 15.5512 50.695 16.0233 50.695 16.5742C50.695 17.1088 50.811 17.5894 51.041 18.0187C51.2867 18.4343 51.6105 18.7627 52.0132 19.0059C52.4151 19.2337 52.8606 19.3482 53.3521 19.3482C53.8593 19.3482 54.3121 19.2334 54.7135 19.0059Z" fill="white"/>
<path fill-rule="evenodd" clip-rule="evenodd" d="M71.3948 16.4651C71.3948 17.2426 71.5329 17.9689 71.8101 18.6427C72.0864 19.329 72.4706 19.9327 72.9628 20.4526C73.4399 20.9726 73.9945 21.3785 74.6262 21.6695C75.2452 21.9616 75.9103 22.1074 76.6199 22.1074C77.359 22.1074 78.0253 21.9619 78.6163 21.6682C79.0119 21.4716 79.3692 21.2261 79.6879 20.9317C79.819 21.6017 80.4129 22.1074 81.1256 22.1074C81.9346 22.1074 82.5904 21.4559 82.5904 20.6523V12.39C82.5904 11.5864 81.9346 10.935 81.1256 10.935C80.4318 10.935 79.8508 11.4141 79.6993 12.0575C79.3892 11.7768 79.0431 11.5415 78.6615 11.3519L78.6598 11.351L78.6581 11.3502C78.0529 11.0726 77.3727 10.9351 76.6199 10.9351C75.911 10.9351 75.2395 11.0731 74.6064 11.3493C73.9748 11.6249 73.4198 12.008 72.942 12.4981L72.9414 12.4988L72.9408 12.4995C72.4634 13.0045 72.0866 13.5933 71.8103 14.2647C71.5328 14.9389 71.3948 15.6728 71.3948 16.4651ZM74.6706 15.0191C74.9012 14.6038 75.2172 14.2753 75.6199 14.032C76.0213 13.8044 76.4741 13.6895 76.9813 13.6895C77.4728 13.6895 77.9182 13.8041 78.3201 14.032C78.7228 14.2753 79.0466 14.604 79.2923 15.0198C79.5223 15.4493 79.6383 15.9302 79.6383 16.4651C79.6383 17.0164 79.5217 17.4888 79.2932 17.8866C79.0471 18.3035 78.7225 18.6329 78.3188 18.8766C77.9168 19.1191 77.4719 19.2407 76.9813 19.2407C76.4749 19.2407 76.0226 19.1188 75.6212 18.8766L75.6199 18.8758L75.6185 18.875C75.2167 18.6468 74.9011 18.3263 74.6706 17.9111L74.6698 17.9097L74.669 17.9084C74.4253 17.4951 74.3017 17.0153 74.3017 16.4651C74.3017 15.9306 74.425 15.4499 74.6699 15.0203L74.6703 15.0197L74.6706 15.0191Z" fill="white"/>
<path d="M84.1219 14.136C83.9064 14.7785 83.7997 15.502 83.7997 16.305L83.7997 20.6411C83.7997 21.4509 84.4605 22.1074 85.2757 22.1074C86.0909 22.1074 86.7517 21.4509 86.7517 20.6411V16.2826C86.7517 15.5867 86.9663 14.9658 87.3585 14.5207C87.749 14.0774 88.3225 13.8001 89.0603 13.8001C89.7981 13.8001 90.3717 14.0774 90.7622 14.5207C91.1544 14.9658 91.3689 15.5867 91.3689 16.2826V20.6411C91.3689 21.4509 92.0298 22.1074 92.845 22.1074C93.6601 22.1074 94.321 21.4509 94.321 20.6411V16.305C94.321 15.502 94.2143 14.7785 93.9987 14.136C93.2724 11.9205 91.3123 10.935 89.0603 10.935C86.8084 10.935 84.8482 11.9205 84.1219 14.136Z" fill="white"/>
</svg>
