<svg width="193" height="27" viewBox="0 0 193 27" fill="none" xmlns="http://www.w3.org/2000/svg">
<path d="M0 5.1521H1.85592V11.1188C1.85592 12.2693 1.9315 13.109 2.09106 13.6423C2.33039 14.4401 2.90984 14.9524 3.82941 15.1749C4.51383 15.3387 5.45438 15.4226 6.64267 15.4226C8.0955 15.4226 9.20401 15.3135 9.96821 15.0909C11.2615 14.7172 12.0089 14.0076 12.2104 12.9579C12.307 12.4498 12.3532 11.7864 12.3532 10.9592V5.1521H14.2091V16.9048H12.3532V15.1539H12.2356C11.8451 15.7921 11.3622 16.2456 10.7786 16.5143C10.006 16.8755 8.55738 17.0518 6.43693 17.0518C4.84134 17.0518 3.65725 16.9552 2.89305 16.7621C1.49901 16.4136 0.642433 15.7124 0.319117 14.6668C0.109172 13.974 0 12.9663 0 11.652V5.1521Z" fill="white"/>
<path d="M27.7548 12.6644H29.6527C29.6275 14.0963 29.3 15.1334 28.6743 15.78C28.1873 16.2839 27.4777 16.6408 26.5497 16.8423C25.9199 16.9809 24.8911 17.0481 23.4677 17.0481C21.1625 17.0481 19.5501 16.9599 18.6264 16.7794C17.1315 16.4896 16.1112 15.78 15.557 14.6547C15.1413 13.7897 14.9313 12.593 14.9313 11.0604C14.9313 9.52784 15.1371 8.26817 15.5528 7.41999C16.0902 6.31148 17.0434 5.59766 18.408 5.27435C19.1722 5.09379 20.4655 5.00562 22.292 5.00562C24.3579 5.00562 25.8317 5.12318 26.7177 5.35832C27.8556 5.65645 28.6324 6.1981 29.0564 6.9791C29.3588 7.53336 29.5393 8.32695 29.5939 9.35149H27.6414C27.6288 8.56629 27.4609 7.98684 27.1459 7.61314C26.8352 7.25203 26.2894 6.9959 25.5126 6.84054C24.8239 6.70197 23.749 6.63479 22.292 6.63479C20.1842 6.63479 18.8027 6.85314 18.1477 7.28982C17.3247 7.82728 16.9132 9.13314 16.9132 11.2074C16.9132 12.3999 17.056 13.2691 17.3415 13.8233C17.7194 14.5581 18.4248 15.0242 19.4577 15.2174C20.2093 15.3559 21.4102 15.4231 23.0604 15.4231C24.593 15.4231 25.7099 15.3013 26.4111 15.0578C26.999 14.8563 27.3853 14.4826 27.5784 13.9325C27.6876 13.6092 27.7506 13.1893 27.7632 12.6644" fill="white"/>
<path d="M30.2071 5.1521H32.063V11.1188C32.063 12.2693 32.1386 13.109 32.2982 13.6423C32.5375 14.4401 33.1169 14.9524 34.0365 15.1749C34.7209 15.3387 35.6615 15.4226 36.8498 15.4226C38.3026 15.4226 39.4111 15.3135 40.1753 15.0909C41.4686 14.7172 42.216 14.0076 42.4175 12.9579C42.5141 12.4498 42.5603 11.7864 42.5603 10.9592V5.1521H44.4162V16.9048H42.5603V15.1539H42.4427C42.0522 15.7921 41.5693 16.2456 40.9857 16.5143C40.2131 16.8755 38.7645 17.0518 36.644 17.0518C35.0484 17.0518 33.8643 16.9552 33.1001 16.7621C31.7061 16.4136 30.8495 15.7124 30.5262 14.6668C30.3163 13.974 30.2071 12.9663 30.2071 11.652V5.1521Z" fill="white"/>
<path d="M45.5163 5.1521H58.2054V6.80227L47.7459 15.3219H58.281V16.9048H45.0964V15.0993L55.4341 6.73929H45.5163V5.1521Z" fill="white"/>
<path d="M60.565 8.68396H58.6419C58.6293 8.46561 58.6209 8.29766 58.6209 8.17589C58.6209 7.17235 58.9359 6.42075 59.5657 5.92107C60.3383 5.30384 62.2152 4.99731 65.2006 4.99731C67.594 4.99731 69.2652 5.14428 70.2057 5.4424C71.2764 5.77831 71.9651 6.45014 72.2674 7.46207C72.4311 7.99534 72.5193 8.57898 72.5361 9.21302C72.5403 9.43976 72.5445 9.93943 72.5445 10.712V16.9054H70.7096L70.7432 15.5324H70.6466C70.063 16.3596 69.1518 16.8382 67.9173 16.9684C67.3841 17.023 66.5233 17.0482 65.3392 17.0482C63.0508 17.0482 61.535 16.9852 60.7918 16.8634C59.721 16.6829 58.9652 16.2546 58.5244 15.566C58.243 15.1251 58.1045 14.4323 58.1045 13.4917C58.1045 12.3622 58.2976 11.5518 58.6839 11.0647C59.1332 10.4937 59.889 10.1452 60.9555 10.015C61.5728 9.93943 62.6183 9.89744 64.1005 9.89744C66.9558 9.89744 68.7067 10.0066 69.3533 10.2292C69.8068 10.3845 70.2057 10.6952 70.5458 11.1613H70.7096V9.89744C70.7096 9.03247 70.5794 8.37744 70.3233 7.93235C70.0126 7.39489 69.4625 7.03798 68.6731 6.85743C68.0139 6.70627 66.9096 6.63069 65.356 6.63069C63.5504 6.63069 62.337 6.71047 61.7197 6.87843C60.9471 7.08837 60.5608 7.63843 60.5608 8.5286V8.68816L60.565 8.68396ZM65.2216 11.5518C63.5127 11.5518 62.3999 11.5812 61.8919 11.64C60.6868 11.787 60.0822 12.421 60.0822 13.5379C60.0822 14.3021 60.3719 14.8186 60.9513 15.0915C61.4132 15.3098 63.0466 15.4232 65.8389 15.4232C67.9887 15.4232 69.3365 15.2427 69.895 14.8857C70.3401 14.596 70.5626 14.1341 70.5626 13.5001C70.5626 12.8241 70.3023 12.3454 69.7774 12.0641C69.1392 11.724 67.6192 11.556 65.2174 11.556" fill="white"/>
<path d="M73.5101 0H78.0029V6.51251H78.1919C78.7545 5.57195 79.6321 4.9925 80.8288 4.76996C81.4502 4.65239 82.2438 4.59361 83.2096 4.59361C84.9185 4.59361 86.2916 4.72377 87.3329 4.98411C88.6556 5.31582 89.5331 6.02124 89.9698 7.10456C90.2722 7.85196 90.4233 9.11163 90.4233 10.8794C90.4233 12.3364 90.3435 13.3777 90.184 14.0118C89.8523 15.3554 89.0881 16.2414 87.8914 16.6781C86.9172 17.0392 85.4014 17.2197 83.3356 17.2197C81.2697 17.2197 79.8085 16.9762 79.0149 16.4933C78.6538 16.275 78.3095 15.8887 77.9777 15.3386H77.73V16.909H73.5101V0ZM81.9415 7.97793C80.4299 7.97793 79.4096 8.12069 78.8847 8.39782C78.5026 8.60777 78.2549 8.92268 78.1373 9.34677C78.0491 9.67849 78.0029 10.2453 78.0029 11.0515C78.0029 11.9963 78.1121 12.6303 78.3304 12.9536C78.7293 13.5373 79.9806 13.827 82.0885 13.827C83.6589 13.827 84.7044 13.6633 85.2209 13.3315C85.5274 13.13 85.7331 12.8025 85.8339 12.3532C85.9137 12.0131 85.9557 11.463 85.9557 10.6988C85.9557 9.93462 85.8759 9.39716 85.7247 9.08224C85.372 8.34323 84.1124 7.97373 81.9499 7.97373" fill="white"/>
<path d="M90.9821 4.90433H95.4749V16.9048H90.9821V4.90433ZM90.9821 0H95.4749V3.37592H90.9821V0Z" fill="white"/>
<path d="M100.929 0H96.4363V16.9048H100.929V0Z" fill="white"/>
<path d="M113.253 13.0676H117.721C117.603 14.2937 117.225 15.2133 116.583 15.8221C115.986 16.3806 115.063 16.7627 113.811 16.9684C112.808 17.1322 111.321 17.2162 109.352 17.2162C107.496 17.2162 106.144 17.128 105.3 16.9516C103.654 16.6199 102.592 15.9061 102.109 14.8186C101.769 14.0376 101.601 12.7527 101.601 10.964C101.601 9.3642 101.702 8.23469 101.903 7.56287C102.298 6.2948 103.146 5.45921 104.452 5.05612C105.46 4.7496 107.24 4.59424 109.785 4.59424C111.771 4.59424 113.177 4.66562 114.005 4.80838C115.735 5.1107 116.847 5.8791 117.343 7.10939C117.666 7.92397 117.83 9.04508 117.83 10.4769C117.83 10.7792 117.817 11.2453 117.796 11.8793H106.073C106.073 12.4756 106.115 12.9081 106.195 13.1852C106.354 13.7227 106.854 14.067 107.694 14.2307C108.093 14.3105 108.752 14.3483 109.676 14.3483C110.889 14.3483 111.796 14.2727 112.401 14.1258C112.879 14.0124 113.165 13.6597 113.261 13.0676M113.324 9.42298C113.312 9.07867 113.291 8.80575 113.261 8.6042C113.165 8.03735 112.695 7.66784 111.846 7.49988C111.468 7.4243 110.805 7.38651 109.856 7.38651C108.109 7.38651 107.034 7.57126 106.631 7.94497C106.291 8.25149 106.111 8.74696 106.081 9.42718H113.329L113.324 9.42298Z" fill="white"/>
<path d="M120.273 2.14917H124.75V4.90366H131.85V8.11162H124.75V11.6093C124.75 12.5331 124.817 13.1209 124.955 13.3771C125.182 13.7885 125.707 13.9985 126.534 13.9985C127.361 13.9985 127.936 13.7969 128.151 13.3939C128.268 13.1755 128.327 12.869 128.327 12.4785V11.7689H132.421C132.408 12.6842 132.366 13.3687 132.287 13.8221C131.959 15.7998 130.662 16.8999 128.403 17.1099C127.672 17.1813 126.925 17.2149 126.173 17.2149C124.481 17.2149 123.251 17.0889 122.486 16.8412C121.336 16.4675 120.651 15.7242 120.433 14.6115C120.332 14.0867 120.282 13.0873 120.282 11.6093V8.11162H117.918V4.90366H120.282V2.14917H120.273Z" fill="white"/>
<path d="M135.809 14.0491H133.051V16.9043H135.809V14.0491Z" fill="white"/>
<path d="M148.826 12.6642H150.724C150.699 14.096 150.371 15.1331 149.746 15.7798C149.259 16.2836 148.549 16.6405 147.621 16.8421C146.991 16.9807 145.963 17.0478 144.539 17.0478C142.234 17.0478 140.622 16.9597 139.698 16.7791C138.203 16.4894 137.183 15.7798 136.628 14.6545C136.213 13.7895 136.003 12.5928 136.003 11.0602C136.003 9.5276 136.209 8.26792 136.624 7.41974C137.162 6.31123 138.115 5.59742 139.48 5.2741C140.244 5.09355 141.537 5.00537 143.364 5.00537C145.429 5.00537 146.903 5.12294 147.789 5.35808C148.927 5.6562 149.704 6.19786 150.128 6.97886C150.43 7.53311 150.611 8.32671 150.665 9.35124H148.713C148.7 8.56605 148.532 7.9866 148.217 7.61289C147.907 7.25179 147.361 6.99565 146.584 6.84029C145.895 6.70173 144.821 6.63455 143.364 6.63455C141.256 6.63455 139.874 6.85289 139.219 7.28958C138.396 7.82704 137.985 9.1329 137.985 11.2072C137.985 12.3996 138.127 13.2688 138.413 13.8231C138.791 14.5579 139.496 15.024 140.529 15.2171C141.281 15.3557 142.478 15.4229 144.132 15.4229C145.665 15.4229 146.781 15.3011 147.483 15.0576C148.07 14.856 148.457 14.4823 148.65 13.9323C148.759 13.6089 148.822 13.189 148.835 12.6642" fill="white"/>
<path d="M158.681 5.00977C160.592 5.00977 161.986 5.07275 162.855 5.19452C164.245 5.39187 165.273 5.96712 165.937 6.92447C166.546 7.79364 166.848 9.15829 166.848 11.0226C166.848 13.8737 166.063 15.6708 164.497 16.4224C163.779 16.7625 162.876 16.9557 161.78 17.0061C161.192 17.0354 160.415 17.048 159.449 17.048C157.682 17.048 156.38 16.9851 155.532 16.8633C153.932 16.6281 152.811 15.9983 152.173 14.9738C151.64 14.113 151.375 12.8197 151.375 11.0982C151.375 8.15055 152.202 6.31563 153.852 5.58921C154.726 5.20292 156.338 5.00977 158.685 5.00977M158.845 6.63474C157.686 6.63474 156.779 6.68093 156.128 6.77751C154.927 6.95806 154.15 7.44093 153.789 8.23453C153.5 8.86856 153.357 9.83012 153.357 11.1234C153.357 12.4166 153.537 13.3866 153.894 14.008C154.293 14.7009 155.099 15.1333 156.313 15.2971C156.918 15.3769 157.913 15.4189 159.298 15.4189C160.684 15.4189 161.742 15.3643 162.313 15.2551C163.388 15.0452 164.102 14.5623 164.459 13.8065C164.736 13.2228 164.87 12.2739 164.87 10.9596C164.87 9.93089 164.782 9.15409 164.602 8.62923C164.324 7.82304 163.804 7.28138 163.044 7.00845C162.355 6.76071 160.957 6.63474 158.845 6.63474Z" fill="white"/>
<path d="M167.343 5.15253H169.22V6.69773C169.665 6.15607 170.077 5.77817 170.455 5.56822C171.118 5.19452 172.298 5.00977 174.007 5.00977C175.619 5.00977 176.808 5.09794 177.568 5.2785C178.487 5.49684 179.172 5.84535 179.621 6.32822C179.776 6.50038 179.944 6.73972 180.116 7.05463C180.633 6.0385 181.552 5.41286 182.888 5.17772C183.509 5.06855 184.412 5.01396 185.592 5.01396C187.301 5.01396 188.535 5.12314 189.287 5.34568C190.45 5.68579 191.244 6.32402 191.672 7.25618C191.915 7.79784 192.037 8.95674 192.037 10.7329V16.9137H190.181V10.3004C190.181 8.86017 189.963 7.92801 189.53 7.50812C188.951 6.93287 187.632 6.64734 185.579 6.64734C184.278 6.64734 183.329 6.73552 182.737 6.91607C181.72 7.22259 181.103 7.85243 180.881 8.80558C180.717 9.51939 180.633 10.6783 180.633 12.2823V16.9179H178.777V10.3046C178.777 9.44801 178.722 8.80558 178.613 8.37309C178.42 7.61729 177.799 7.11342 176.745 6.85729C176.178 6.71872 175.313 6.65154 174.146 6.65154C172.907 6.65154 171.979 6.73972 171.362 6.91607C170.299 7.20999 169.661 7.79364 169.443 8.66702C169.279 9.33044 169.195 10.5355 169.195 12.2865V16.9221H167.339V5.16932L167.343 5.15253Z" fill="white"/>
<path d="M100.732 18.1057H96.2434V20.7804H100.732V18.1057Z" fill="white"/>
<path d="M100.732 22.1069H96.2434V23.9796H100.732V22.1069Z" fill="white"/>
<path d="M100.732 25.8618H96.2434V26.9367H100.732V25.8618Z" fill="white"/>
</svg>
